<svg width="260" height="62" viewBox="0 0 260 62" fill="none" xmlns="http://www.w3.org/2000/svg">
<path d="M68.9102 46.623C68.3379 46.623 67.8711 46.4573 67.5096 46.126C67.1783 45.7946 67.0127 45.3579 67.0127 44.8157V16.578C67.0127 16.0359 67.1783 15.5991 67.5096 15.2678C67.8711 14.9365 68.3379 14.7708 68.9102 14.7708H77.7204C82.8107 14.7708 86.7414 16.1564 89.5125 18.9274C92.3136 21.6684 93.7142 25.584 93.7142 30.6743C93.7142 35.7646 92.3136 39.6953 89.5125 42.4664C86.7113 45.2374 82.7806 46.623 77.7204 46.623H68.9102ZM77.4945 43.4603C85.7474 43.4603 89.8739 39.1983 89.8739 30.6743C89.8739 22.1804 85.7474 17.9334 77.4945 17.9334H70.7174V43.4603H77.4945ZM108.997 46.9392C106.919 46.9392 105.081 46.4724 103.485 45.5386C101.919 44.6049 100.699 43.2796 99.8252 41.5628C98.9819 39.8158 98.5602 37.7977 98.5602 35.5086C98.5602 33.2195 98.9819 31.2165 99.8252 29.4996C100.699 27.7526 101.919 26.4123 103.485 25.4786C105.081 24.5448 106.919 24.078 108.997 24.078C111.075 24.078 112.912 24.5448 114.509 25.4786C116.105 26.4123 117.325 27.7526 118.168 29.4996C119.042 31.2165 119.479 33.2195 119.479 35.5086C119.479 37.7977 119.042 39.8158 118.168 41.5628C117.325 43.2796 116.105 44.6049 114.509 45.5386C112.912 46.4724 111.075 46.9392 108.997 46.9392ZM108.997 43.9121C111.165 43.9121 112.822 43.2043 113.967 41.7887C115.141 40.3429 115.729 38.2495 115.729 35.5086C115.729 32.8279 115.141 30.7647 113.967 29.3189C112.792 27.843 111.135 27.1051 108.997 27.1051C106.858 27.1051 105.202 27.843 104.027 29.3189C102.852 30.7647 102.265 32.8279 102.265 35.5086C102.265 38.2194 102.837 40.2977 103.982 41.7435C105.157 43.1893 106.828 43.9121 108.997 43.9121ZM134.013 46.9392C131.964 46.9392 130.142 46.4724 128.546 45.5386C126.98 44.6049 125.76 43.2796 124.886 41.5628C124.043 39.8459 123.621 37.858 123.621 35.599C123.621 33.3399 124.058 31.3369 124.931 29.59C125.835 27.843 127.085 26.4876 128.681 25.5237C130.278 24.5599 132.115 24.078 134.193 24.078C135.338 24.078 136.467 24.2436 137.582 24.575C138.726 24.8762 139.72 25.328 140.564 25.9304C141.106 26.2918 141.482 26.6532 141.693 27.0147C141.934 27.346 142.055 27.7225 142.055 28.1442C142.055 28.5659 141.934 28.9123 141.693 29.1833C141.482 29.4544 141.196 29.59 140.835 29.59C140.624 29.59 140.398 29.5297 140.157 29.4092C139.916 29.2888 139.705 29.1683 139.525 29.0478C139.374 28.9273 139.269 28.852 139.208 28.8219C138.425 28.3099 137.672 27.9032 136.949 27.602C136.257 27.3008 135.398 27.1502 134.374 27.1502C132.175 27.1502 130.458 27.9032 129.223 29.4092C128.019 30.8851 127.416 32.9484 127.416 35.599C127.416 38.2495 128.019 40.2977 129.223 41.7435C130.458 43.1893 132.175 43.9121 134.374 43.9121C135.398 43.9121 136.272 43.7615 136.995 43.4603C137.748 43.1591 138.501 42.7525 139.254 42.2405C139.585 42.0296 139.901 41.8489 140.202 41.6983C140.504 41.5477 140.76 41.4724 140.97 41.4724C141.302 41.4724 141.573 41.6079 141.784 41.879C142.025 42.1501 142.145 42.4965 142.145 42.9182C142.145 43.3097 142.04 43.6712 141.829 44.0025C141.618 44.3037 141.226 44.6501 140.654 45.0416C139.811 45.6139 138.787 46.0808 137.582 46.4422C136.407 46.7736 135.217 46.9392 134.013 46.9392Z" fill="white"/>
<path d="M160.602 46.9844C157.59 46.9844 154.985 46.3368 152.786 45.0416C150.587 43.7164 148.885 41.8338 147.68 39.3941C146.506 36.9242 145.918 34.0176 145.918 30.6743C145.918 27.3611 146.506 24.4846 147.68 22.0449C148.885 19.575 150.587 17.6925 152.786 16.3973C154.985 15.072 157.59 14.4094 160.602 14.4094C162.62 14.4094 164.518 14.7407 166.295 15.4033C168.102 16.0359 169.668 16.9545 170.993 18.1593C171.475 18.6112 171.716 19.1383 171.716 19.7407C171.716 20.1623 171.596 20.5388 171.355 20.8702C171.114 21.1714 170.828 21.322 170.496 21.322C170.135 21.322 169.698 21.1563 169.186 20.825C167.65 19.6202 166.249 18.7768 164.984 18.2949C163.75 17.813 162.319 17.572 160.692 17.572C157.198 17.572 154.503 18.7166 152.605 21.0057C150.738 23.2647 149.804 26.4876 149.804 30.6743C149.804 34.8911 150.738 38.1441 152.605 40.4332C154.503 42.6923 157.198 43.8218 160.692 43.8218C162.289 43.8218 163.719 43.5808 164.984 43.0989C166.249 42.617 167.65 41.7736 169.186 40.5688C169.698 40.2375 170.135 40.0718 170.496 40.0718C170.828 40.0718 171.114 40.2224 171.355 40.5236C171.596 40.8248 171.716 41.2013 171.716 41.6531C171.716 42.2555 171.475 42.7826 170.993 43.2344C169.668 44.4392 168.102 45.373 166.295 46.0356C164.518 46.6681 162.62 46.9844 160.602 46.9844ZM188.241 24.078C190.832 24.078 192.79 24.8159 194.115 26.2918C195.44 27.7376 196.103 29.9062 196.103 32.7978V45.0416C196.103 45.6139 195.937 46.0657 195.606 46.3971C195.274 46.6983 194.838 46.8489 194.296 46.8489C193.723 46.8489 193.271 46.6983 192.94 46.3971C192.609 46.0657 192.443 45.6139 192.443 45.0416V32.8881C192.443 30.9303 192.037 29.4846 191.223 28.5508C190.44 27.6171 189.175 27.1502 187.428 27.1502C185.41 27.1502 183.799 27.7677 182.594 29.0026C181.389 30.2376 180.787 31.9092 180.787 34.0176V45.0416C180.787 45.6139 180.621 46.0657 180.29 46.3971C179.988 46.6983 179.552 46.8489 178.979 46.8489C178.407 46.8489 177.955 46.6983 177.624 46.3971C177.293 46.0657 177.127 45.6139 177.127 45.0416V16.307C177.127 15.7949 177.293 15.3732 177.624 15.0419C177.985 14.7106 178.437 14.5449 178.979 14.5449C179.552 14.5449 179.988 14.7106 180.29 15.0419C180.621 15.3431 180.787 15.7648 180.787 16.307V28.1442C181.509 26.8189 182.519 25.8099 183.814 25.1171C185.109 24.4244 186.585 24.078 188.241 24.078ZM211.797 24.078C217.309 24.078 220.065 26.9695 220.065 32.7526V45.0416C220.065 45.5838 219.899 46.0206 219.568 46.3519C219.266 46.6832 218.845 46.8489 218.303 46.8489C217.76 46.8489 217.324 46.6832 216.992 46.3519C216.661 46.0206 216.495 45.5838 216.495 45.0416V42.873C215.923 44.1682 215.05 45.1772 213.875 45.9001C212.7 46.5928 211.345 46.9392 209.809 46.9392C208.393 46.9392 207.083 46.6531 205.878 46.0808C204.703 45.5085 203.77 44.7103 203.077 43.6862C202.384 42.6621 202.038 41.5326 202.038 40.2977C202.038 38.6411 202.459 37.361 203.303 36.4574C204.146 35.5237 205.532 34.861 207.459 34.4694C209.387 34.0478 212.068 33.8369 215.501 33.8369H216.495V32.346C216.495 30.5388 216.119 29.2135 215.366 28.3701C214.643 27.5267 213.453 27.1051 211.797 27.1051C209.748 27.1051 207.67 27.6623 205.562 28.7767C204.748 29.2888 204.176 29.5448 203.845 29.5448C203.483 29.5448 203.182 29.4092 202.941 29.1382C202.7 28.8671 202.58 28.5207 202.58 28.099C202.58 27.6773 202.7 27.3159 202.941 27.0147C203.212 26.6834 203.634 26.352 204.206 26.0207C205.26 25.4183 206.45 24.9515 207.776 24.6201C209.131 24.2587 210.471 24.078 211.797 24.078ZM210.306 44.0477C212.113 44.0477 213.589 43.4453 214.733 42.2405C215.908 41.0055 216.495 39.4242 216.495 37.4965V36.1863H215.682C213.031 36.1863 211.013 36.3068 209.628 36.5477C208.242 36.7586 207.248 37.1351 206.646 37.6772C206.074 38.1893 205.788 38.9574 205.788 39.9814C205.788 41.1561 206.209 42.135 207.053 42.9182C207.926 43.6712 209.01 44.0477 210.306 44.0477ZM228.616 46.8489C228.074 46.8489 227.622 46.6983 227.261 46.3971C226.929 46.0657 226.764 45.6139 226.764 45.0416V25.9755C226.764 25.4033 226.929 24.9665 227.261 24.6653C227.622 24.334 228.074 24.1683 228.616 24.1683C229.158 24.1683 229.595 24.334 229.926 24.6653C230.258 24.9665 230.423 25.4033 230.423 25.9755V45.0416C230.423 45.644 230.258 46.0959 229.926 46.3971C229.595 46.6983 229.158 46.8489 228.616 46.8489ZM228.616 19.4244C227.893 19.4244 227.306 19.2136 226.854 18.7919C226.402 18.3702 226.176 17.813 226.176 17.1202C226.176 16.4576 226.402 15.9154 226.854 15.4937C227.306 15.072 227.893 14.8612 228.616 14.8612C229.339 14.8612 229.926 15.072 230.378 15.4937C230.83 15.9154 231.056 16.4576 231.056 17.1202C231.056 17.813 230.83 18.3702 230.378 18.7919C229.926 19.2136 229.339 19.4244 228.616 19.4244ZM248.334 24.078C253.605 24.078 256.24 26.9846 256.24 32.7978V45.0416C256.24 45.6139 256.075 46.0657 255.743 46.3971C255.442 46.6983 255.005 46.8489 254.433 46.8489C253.861 46.8489 253.409 46.6983 253.078 46.3971C252.746 46.0657 252.581 45.6139 252.581 45.0416V33.0237C252.581 30.9755 252.174 29.4846 251.361 28.5508C250.578 27.6171 249.313 27.1502 247.566 27.1502C245.548 27.1502 243.936 27.7677 242.731 29.0026C241.526 30.2376 240.924 31.9092 240.924 34.0176V45.0416C240.924 45.6139 240.758 46.0657 240.427 46.3971C240.126 46.6983 239.689 46.8489 239.117 46.8489C238.545 46.8489 238.093 46.6983 237.761 46.3971C237.43 46.0657 237.264 45.6139 237.264 45.0416V25.9755C237.264 25.4334 237.43 24.9966 237.761 24.6653C238.093 24.334 238.545 24.1683 239.117 24.1683C239.659 24.1683 240.081 24.334 240.382 24.6653C240.713 24.9966 240.879 25.4183 240.879 25.9304V28.2346C241.602 26.8792 242.611 25.8551 243.906 25.1623C245.201 24.4394 246.677 24.078 248.334 24.078Z" fill="#DE18A1"/>
<path d="M21.1198 52.0588L42.1283 31.0029L26.3024 15.2848L15.8085 15.3093L0.153 31.101L21.1198 52.0588Z" fill="white"/>
<g filter="url(#filter0_d)">
<path d="M15.8265 15.2919H26.306L20.5151 21.6853L15.8265 15.2919Z" fill="#E0E2E3"/>
</g>
<path d="M41.949 51.58L62.9576 30.5241L47.1316 14.806L36.6378 14.8305L20.9822 30.6222L41.949 51.58Z" fill="#DE18A1"/>
<g filter="url(#filter1_d)">
<path d="M36.6557 14.8131H47.1352L41.3443 21.2065L36.6557 14.8131Z" fill="#E994CF"/>
</g>
<defs>
<filter id="filter0_d" x="12.4167" y="15.2919" width="17.2991" height="13.2131" filterUnits="userSpaceOnUse" color-interpolation-filters="sRGB">
<feFlood flood-opacity="0" result="BackgroundImageFix"/>
<feColorMatrix in="SourceAlpha" type="matrix" values="0 0 0 0 0 0 0 0 0 0 0 0 0 0 0 0 0 0 127 0"/>
<feOffset dy="3.40984"/>
<feGaussianBlur stdDeviation="1.70492"/>
<feColorMatrix type="matrix" values="0 0 0 0 0 0 0 0 0 0 0 0 0 0 0 0 0 0 0.08 0"/>
<feBlend mode="normal" in2="BackgroundImageFix" result="effect1_dropShadow"/>
<feBlend mode="normal" in="SourceGraphic" in2="effect1_dropShadow" result="shape"/>
</filter>
<filter id="filter1_d" x="33.2459" y="14.8131" width="17.2991" height="13.2131" filterUnits="userSpaceOnUse" color-interpolation-filters="sRGB">
<feFlood flood-opacity="0" result="BackgroundImageFix"/>
<feColorMatrix in="SourceAlpha" type="matrix" values="0 0 0 0 0 0 0 0 0 0 0 0 0 0 0 0 0 0 127 0"/>
<feOffset dy="3.40984"/>
<feGaussianBlur stdDeviation="1.70492"/>
<feColorMatrix type="matrix" values="0 0 0 0 0 0 0 0 0 0 0 0 0 0 0 0 0 0 0.08 0"/>
<feBlend mode="normal" in2="BackgroundImageFix" result="effect1_dropShadow"/>
<feBlend mode="normal" in="SourceGraphic" in2="effect1_dropShadow" result="shape"/>
</filter>
</defs>
</svg>
