<svg viewBox="0 0 510 200" class="prefix__chart"><defs><marker id="prefix__a" markerWidth="4" markerHeight="4" refX="2" refY="2"><circle cx="2" cy="2" r="2" fill="#3887cc"/></marker></defs><path fill="#eef3f7" d="M0 72h4l26 33h4l26-33h4l26 10h4l26-25h4l26-6h4l26-6h4l26 36h4l26-17h4l26 23h4l26-24h4l26-30h4l26 36h4l26-11h4l26 47h4l26-8h4l26-40h4l26 13h4v150H0z"/><path fill="none" stroke="#cad7e3" stroke-width="2" marker-start="url(#prefix__a)" marker-end="url(#prefix__a)" d="M4 72l26 33"/><path fill="none" stroke="#cad7e3" stroke-width="2" marker-end="url(#prefix__a)" d="M34 105l26-33M64 72l26 10M94 82l26-25M124 57l26-6M154 51l26-6M184 45l26 36M214 81l26-17M244 64l26 23M274 87l26-24M304 63l26-30M334 33l26 36M364 69l26-11M394 58l26 47M424 105l26-8M454 97l26-40M484 57l26 13"/></svg>